<svg width="14" height="14" viewBox="0 0 14 14" fill="none" xmlns="http://www.w3.org/2000/svg">
<path fill-rule="evenodd" clip-rule="evenodd" d="M6.23495 0.00506274C6.46215 0.00472941 6.71568 0.00506274 7.00048 0.00506274C9.27888 0.00506274 9.54895 0.0132633 10.4487 0.0541299C11.2807 0.0921966 11.7323 0.231196 12.0331 0.347996C12.4313 0.502663 12.7152 0.68753 13.0137 0.986197C13.3123 1.28486 13.4973 1.56933 13.6523 1.9676C13.7691 2.268 13.9083 2.7196 13.9461 3.5516C13.987 4.45113 13.9959 4.7214 13.9959 6.99873C13.9959 9.27606 13.987 9.54633 13.9461 10.4459C13.9081 11.2779 13.7691 11.7295 13.6523 12.0299C13.4976 12.4281 13.3123 12.7117 13.0137 13.0102C12.715 13.3089 12.4315 13.4937 12.0331 13.6484C11.7326 13.7657 11.2807 13.9044 10.4487 13.9425C9.54915 13.9833 9.27888 13.9922 7.00048 13.9922C4.72188 13.9922 4.45181 13.9833 3.55228 13.9425C2.72028 13.9041 2.26868 13.765 1.96775 13.6482C1.56948 13.4935 1.28502 13.3087 0.986349 13.01C0.687682 12.7113 0.502816 12.4276 0.347816 12.0292C0.231016 11.7287 0.091816 11.2772 0.0539493 10.4452C0.013016 9.5456 0.00488281 9.2754 0.00488281 6.9966C0.00488281 4.7178 0.013016 4.449 0.0539493 3.54946C0.0919493 2.71746 0.231016 2.26586 0.347816 1.96506C0.502482 1.56686 0.687682 1.2824 0.986349 0.98373C1.28502 0.685063 1.56948 0.500196 1.96775 0.34513C2.26855 0.227796 2.72028 0.0891294 3.55228 0.0509294C4.33948 0.0153961 4.64455 0.00472969 6.23495 0.00292969V0.00506274ZM11.5555 1.42193C10.9902 1.42193 10.5315 1.88013 10.5315 2.4456C10.5315 3.01093 10.9902 3.4696 11.5555 3.4696C12.1209 3.4696 12.5795 3.01093 12.5795 2.4456C12.5795 1.88026 12.1209 1.42193 11.5555 1.42193ZM7.00048 2.6184C4.58035 2.6184 2.61821 4.5806 2.61821 7.00066C2.61821 9.4208 4.58035 11.3821 7.00048 11.3821C9.42061 11.3821 11.382 9.4208 11.382 7.00066C11.382 4.5806 9.42061 2.6184 7.00048 2.6184Z" fill="#FAF4EA"/>
</svg>
